<?xml version="1.0" encoding="utf-8" standalone="yes"?>
<!DOCTYPE svg PUBLIC "-//W3C//DTD SVG 1.1//EN" "http://www.w3.org/Graphics/SVG/1.1/DTD/svg11.dtd">
<svg xmlns="http://www.w3.org/2000/svg" xmlns:xlink="http://www.w3.org/1999/xlink" xmlns:dc="http://purl.org/dc/elements/1.1/" xmlns:cc="http://web.resource.org/cc/" xmlns:rdf="http://www.w3.org/1999/02/22-rdf-syntax-ns#" xmlns:sodipodi="http://sodipodi.sourceforge.net/DTD/sodipodi-0.dtd" xmlns:inkscape="http://www.inkscape.org/namespaces/inkscape" height="160px" style="zoom: 1;" cursor="crosshair" id="svg_document" width="700px" baseProfile="full" version="1.1" preserveAspectRatio="xMidYMid meet" viewBox="0 0 700 160"><!-- Created with macSVG - https://macsvg.org/ - https://github.com/dsward2/macsvg/ --><title id="svg_document_title">Untitled.svg</title><defs id="svg_document_defs"></defs><g id="main_group"><rect height="160px" x="0px" y="0px" id="background_rect" width="700px" fill="#90ee90" visibility="hidden"></rect></g><path stroke="none" id="I" stroke-width="0px" d="M20,0 a20,20 0 0 0 -20,20 l0,140 a20,20 0 0 0 20,-20  Z " fill="#000000" transform=""></path><path stroke="none" stroke-width="0" id="path1" d="M680,0 a-20,20 0 0 1 20,20 l-0,140 a-20,20 0 0 1 -20,-20  Z " fill="#000000" transform=""></path><path stroke="none" id="R" stroke-width="0px" d="M110,0 a20,20 0 0 0 20,20 l25,0 a25,25 0 0 1 0,50 l-25,0 a20,20 0 0 0 -20,20 l45,70 l120,0 a20,20 0 0 0 -20,-20 l-90,0 l-30,-50 l20,0 a45,45 0 0 0 0,-90  Z " fill="#000000" transform=""></path><path stroke="none" stroke-width="0" id="path3" d="M590,0 a-20,20 0 0 1 -20,20 l-25,0 a-25,25 0 0 0 -0,50 l25,0 a-20,20 0 0 1 20,20 l-45,70 l-120,0 a-20,20 0 0 1 20,-20 l90,0 l30,-50 l-20,0 a-45,45 0 0 1 -0,-90  Z " fill="#000000" transform=""></path><path stroke="none" id="S" stroke-width="0px" d="M20,160 l45,0 a45,45 9 0 0 0,-90 a25,25 0 0 1 0,-50 l25,0 a20,20 0 0 0 20,-20 l-45,0 a45,45 0 0 0 0,90 a25,25 0 0 1 0,50 l-25,0 a20,20 0 0 0 -20,20  Z " fill="#000000" transform=""></path><path stroke="none" stroke-width="0" id="path2" d="M680,160 l-45,0 a-45,45 9 0 1 -0,-90 a-25,25 0 0 0 -0,-50 l-25,0 a-20,20 0 0 1 -20,-20 l45,0 a-45,45 0 0 1 -0,90 a-25,25 0 0 0 -0,50 l25,0 a-20,20 0 0 1 20,20  Z " fill="#000000" transform=""></path><path stroke="none" id="path4" stroke-width="0px" d="M300,160 a20,20 0 0 0 -20,-20 a60,60 0 0 1 0,-120 a20,20 0 0 0 20,-20 l-20,0 a80,80 0 0 0 0,160  Z " fill="#000000" transform=""></path><path stroke="none" stroke-width="0" id="path5" d="M400,160 a-20,20 0 0 1 20,-20 a-60,60 0 0 0 -0,-120 a-20,20 0 0 1 -20,-20 l20,0 a-80,80 0 0 1 -0,160  Z " fill="#000000" transform=""></path><circle stroke="none" id="circle1" stroke-width="0px" cy="80px" fill="#000000" r="20px" cx="260px" transform=""></circle><circle stroke="none" stroke-width="0px" id="circle2" cy="80px" fill="#000000" r="20px" cx="440px" transform=""></circle><polyline points="290,0 350,150 410,0" stroke="#000000" id="polyline1" stroke-width="20px" fill="none" transform="" stroke-linejoin="round"></polyline></svg>